<svg width="25" height="25" viewBox="0 0 25 25" fill="none" xmlns="http://www.w3.org/2000/svg">
<g clip-path="url(#clip0_43_1708)">
<path d="M5.38296 11.8434L13.2071 19.6675L21.0312 11.8434C21.7229 11.1517 22.1115 10.2135 22.1115 9.23519C22.1115 8.25691 21.7229 7.3187 21.0312 6.62696C20.6886 6.28444 20.282 6.01274 19.8345 5.82737C19.387 5.642 18.9073 5.54659 18.4229 5.54659C17.4446 5.54659 16.5064 5.93521 15.8147 6.62696L13.2071 9.23458L10.5994 6.62818C9.90593 5.94572 8.97084 5.56494 7.99786 5.56878C7.02487 5.57263 6.09282 5.96079 5.40473 6.64872C4.71664 7.33665 4.32825 8.26861 4.32418 9.2416C4.3201 10.2146 4.70066 11.1498 5.38296 11.8434ZM12.3379 4.88731L13.2071 5.75652L14.0763 4.88731C14.6462 4.31239 15.324 3.8557 16.0709 3.54345C16.8178 3.23121 17.619 3.06956 18.4285 3.06779C19.238 3.06601 20.0399 3.22415 20.7882 3.53312C21.5364 3.8421 22.2162 4.29581 22.7887 4.86823C23.3611 5.44065 23.8148 6.12049 24.1238 6.86873C24.4327 7.61697 24.5909 8.41887 24.5891 9.22839C24.5873 10.0379 24.4257 10.8391 24.1134 11.586C23.8012 12.3329 23.3445 13.0107 22.7696 13.5806L14.0775 22.2739C13.9633 22.3882 13.8277 22.4789 13.6785 22.5408C13.5292 22.6027 13.3692 22.6345 13.2077 22.6345C13.0461 22.6345 12.8861 22.6027 12.7369 22.5408C12.5876 22.4789 12.452 22.3882 12.3379 22.2739L3.64455 13.5818C3.06181 13.0138 2.59767 12.3356 2.27905 11.5868C1.96044 10.838 1.79369 10.0333 1.78847 9.2195C1.78326 8.4057 1.93968 7.59897 2.24868 6.84611C2.55768 6.09324 3.01309 5.40922 3.5885 4.83373C4.16391 4.25823 4.84786 3.80273 5.60069 3.49362C6.35351 3.18452 7.16022 3.02798 7.97402 3.03308C8.78781 3.03818 9.5925 3.20482 10.3414 3.52333C11.0903 3.84184 11.7685 4.30588 12.3366 4.88854L12.3379 4.88731Z" fill="#181725"/>
</g>
<defs>
<clipPath id="clip0_43_1708">
<rect width="24" height="24" fill="white" transform="translate(0.688736 0.83374)"/>
</clipPath>
</defs>
</svg>
