<svg width="25" height="25" viewBox="0 0 25 25" fill="none" xmlns="http://www.w3.org/2000/svg">
<path d="M9.40381 9.58781C9.93381 10.0628 10.6358 10.3518 11.4038 10.3518H13.4038C14.1419 10.3528 14.8543 10.0807 15.4038 9.58781H9.40381ZM9.40381 9.58781C8.85435 10.0807 8.14194 10.3528 7.40381 10.3518L9.40381 9.58781ZM8.45381 4.35181V4.30181H8.40381H5.40381C5.12533 4.30181 4.85826 4.41243 4.66135 4.60934C4.46444 4.80626 4.35381 5.07333 4.35381 5.35181V7.35181C4.35381 7.63028 4.46444 7.89736 4.66135 8.09427C4.85826 8.29118 5.12533 8.40181 5.40381 8.40181H7.40381C7.68229 8.40181 7.94936 8.29118 8.14627 8.09427C8.34319 7.89736 8.45381 7.63028 8.45381 7.35181V4.35181ZM5.41381 10.3018H5.36381V10.3518V20.3168V20.3668H5.41381H7.40381H7.45381V20.3168V15.3518C7.45381 14.8346 7.65926 14.3386 8.02495 13.9729C8.39065 13.6073 8.88664 13.4018 9.40381 13.4018H11.4038C11.921 13.4018 12.417 13.6073 12.7827 13.9729C13.1484 14.3386 13.3538 14.8346 13.3538 15.3518V20.3168V20.3668H13.4038H19.4168H19.4668V20.3168V10.3518V10.3018H19.4168H17.4038C16.6486 10.3018 15.9583 10.0177 15.4372 9.55057L15.4038 9.52065L15.3704 9.55059C14.8302 10.0352 14.1297 10.3028 13.4039 10.3018H13.4038H11.4038C10.6486 10.3018 9.95834 10.0177 9.43718 9.55057L9.4038 9.52065L9.37042 9.55059C8.83015 10.0352 8.12967 10.3028 7.40388 10.3018H7.40381H5.41381ZM3.41198 9.52893C3.11554 9.25816 2.87751 8.92947 2.71271 8.56299C2.54148 8.18222 2.45323 7.76938 2.45381 7.35188V7.35181V5.35181C2.45381 4.56942 2.76461 3.81907 3.31785 3.26584C3.87108 2.71261 4.62142 2.40181 5.40381 2.40181H19.4038C20.1862 2.40181 20.9365 2.71261 21.4898 3.26584C22.043 3.81907 22.3538 4.56942 22.3538 5.35181V7.35181C22.3538 8.21914 21.9802 8.99984 21.3833 9.53972L21.3668 9.55461V9.57681V20.3168C21.3668 20.834 21.1614 21.33 20.7957 21.6957C20.43 22.0614 19.934 22.2668 19.4168 22.2668H11.7768V22.2659L11.7675 22.2677C11.6476 22.2904 11.5258 22.3018 11.4038 22.3018H9.40381C9.28178 22.3018 9.16001 22.2904 9.0401 22.2677L9.04027 22.2668H9.03081H5.41481C4.89764 22.2668 4.40165 22.0614 4.03595 21.6957C3.67026 21.33 3.46481 20.834 3.46481 20.3168V9.59681V9.47611L3.41198 9.52893ZM11.4538 15.3518V15.3018H11.4038H9.40381H9.35381V15.3518V20.3168V20.3668H9.40381H11.4038V20.3178H11.4538V20.3168V20.2668V15.3518ZM14.4538 4.35181V4.30181H14.4038H10.4038H10.3538V4.35181V7.35181C10.3538 7.63028 10.4644 7.89736 10.6613 8.09427C10.8583 8.29118 11.1253 8.40181 11.4038 8.40181H13.4038C13.6823 8.40181 13.9494 8.29118 14.1463 8.09427C14.3432 7.89736 14.4538 7.63028 14.4538 7.35181V4.35181ZM16.4038 4.30181H16.3538V4.35181V7.35181C16.3538 7.63028 16.4644 7.89736 16.6613 8.09427C16.8583 8.29118 17.1253 8.40181 17.4038 8.40181H19.4038C19.6823 8.40181 19.9494 8.29118 20.1463 8.09427C20.3432 7.89736 20.4538 7.63028 20.4538 7.35181V5.35181C20.4538 5.07333 20.3432 4.80626 20.1463 4.60934C19.9494 4.41243 19.6823 4.30181 19.4038 4.30181H16.4038ZM16.4038 13.4018H17.4038C17.6558 13.4018 17.8974 13.5019 18.0756 13.6801C18.2537 13.8582 18.3538 14.0999 18.3538 14.3518V17.3518C18.3538 17.6038 18.2537 17.8454 18.0756 18.0236C17.8974 18.2017 17.6558 18.3018 17.4038 18.3018H16.4038C16.1519 18.3018 15.9102 18.2017 15.7321 18.0236C15.5539 17.8454 15.4538 17.6038 15.4538 17.3518V14.3518C15.4538 14.0999 15.5539 13.8582 15.7321 13.6801C15.9102 13.5019 16.1519 13.4018 16.4038 13.4018Z" fill="#181725" stroke="white" stroke-width="0.1"/>
</svg>
